<svg width="375" height="44" viewBox="0 0 375 44" fill="none" xmlns="http://www.w3.org/2000/svg">
<path opacity="0.35" fill-rule="evenodd" clip-rule="evenodd" d="M339.752 17.8333C338.743 17.8333 338.345 17.9103 337.933 18.1304C337.586 18.3162 337.316 18.5859 337.13 18.9333C336.91 19.3449 336.833 19.7436 336.833 20.7518V25.2481C336.833 26.2564 336.91 26.6551 337.13 27.0666C337.316 27.4141 337.586 27.6838 337.933 27.8696C338.345 28.0897 338.743 28.1666 339.752 28.1666H354.915C355.923 28.1666 356.322 28.0897 356.733 27.8696C357.081 27.6838 357.35 27.4141 357.536 27.0666C357.756 26.6551 357.833 26.2564 357.833 25.2481V20.7518C357.833 19.7436 357.756 19.3449 357.536 18.9333C357.35 18.5859 357.081 18.3162 356.733 18.1304C356.322 17.9103 355.923 17.8333 354.915 17.8333H339.752Z" stroke="black"/>
<path opacity="0.4" d="M359.333 21V25C360.138 24.6612 360.661 23.8731 360.661 23C360.661 22.1269 360.138 21.3388 359.333 21Z" fill="black"/>
<path d="M340.043 19.3333H354.624C355.218 19.3333 355.434 19.3952 355.651 19.5114C355.868 19.6276 356.039 19.7981 356.155 20.0154C356.271 20.2327 356.333 20.4482 356.333 21.0426V24.9574C356.333 25.5517 356.271 25.7673 356.155 25.9845C356.039 26.2018 355.868 26.3724 355.651 26.4886C355.434 26.6048 355.218 26.6666 354.624 26.6666H340.043C339.448 26.6666 339.233 26.6048 339.015 26.4886C338.798 26.3724 338.628 26.2018 338.511 25.9845C338.395 25.7673 338.333 25.5517 338.333 24.9574V21.0426C338.333 20.4482 338.395 20.2327 338.511 20.0154C338.628 19.7981 338.798 19.6276 339.015 19.5114C339.233 19.3952 339.448 19.3333 340.043 19.3333Z" fill="black"/>
<path d="M323.667 19.6152C325.892 19.6153 328.031 20.4694 329.644 22.001C329.765 22.1192 329.959 22.1177 330.079 21.9976L331.24 20.8273C331.3 20.7664 331.334 20.6839 331.333 20.598C331.333 20.5122 331.298 20.4301 331.237 20.3699C327.005 16.3176 320.329 16.3176 316.097 20.3699C316.035 20.43 316.001 20.5121 316 20.598C315.999 20.6838 316.033 20.7663 316.094 20.8273L317.255 21.9976C317.374 22.1179 317.568 22.1194 317.69 22.001C319.302 20.4693 321.442 19.6152 323.667 19.6152ZM323.667 23.4227C324.889 23.4227 326.068 23.8766 326.974 24.6964C327.097 24.8127 327.29 24.8102 327.409 24.6907L328.569 23.5204C328.63 23.459 328.663 23.3757 328.663 23.2892C328.662 23.2027 328.626 23.1201 328.564 23.0599C325.805 20.4955 321.532 20.4955 318.773 23.0599C318.71 23.1201 318.675 23.2027 318.674 23.2893C318.673 23.3758 318.707 23.4591 318.768 23.5204L319.927 24.6907C320.047 24.8102 320.24 24.8127 320.362 24.6964C321.268 23.8772 322.446 23.4233 323.667 23.4227ZM325.895 26.2158C325.957 26.155 325.991 26.0714 325.989 25.9846C325.988 25.8978 325.95 25.8156 325.886 25.7574C324.605 24.6751 322.729 24.6751 321.449 25.7574C321.384 25.8156 321.347 25.8977 321.345 25.9845C321.343 26.0713 321.377 26.155 321.439 26.2158L323.445 28.2378C323.503 28.2972 323.583 28.3307 323.667 28.3307C323.751 28.3307 323.831 28.2972 323.89 28.2378L325.895 26.2158Z" fill="black"/>
<path d="M295 24.3334H296C296.552 24.3334 297 24.7811 297 25.3334V27.3334C297 27.8856 296.552 28.3334 296 28.3334H295C294.448 28.3334 294 27.8856 294 27.3334V25.3334C294 24.7811 294.448 24.3334 295 24.3334ZM299.667 22.3334H300.667C301.219 22.3334 301.667 22.7811 301.667 23.3334V27.3334C301.667 27.8856 301.219 28.3334 300.667 28.3334H299.667C299.114 28.3334 298.667 27.8856 298.667 27.3334V23.3334C298.667 22.7811 299.114 22.3334 299.667 22.3334ZM304.333 20H305.333C305.886 20 306.333 20.4477 306.333 21V27.3334C306.333 27.8856 305.886 28.3334 305.333 28.3334H304.333C303.781 28.3334 303.333 27.8856 303.333 27.3334V21C303.333 20.4477 303.781 20 304.333 20ZM309 17.6667H310C310.552 17.6667 311 18.1144 311 18.6667V27.3334C311 27.8856 310.552 28.3334 310 28.3334H309C308.448 28.3334 308 27.8856 308 27.3334V18.6667C308 18.1144 308.448 17.6667 309 17.6667Z" fill="black"/>
<path d="M37.089 15.9418C37.5364 15.9453 37.9839 16.0305 38.4313 16.1974C38.8787 16.3643 39.2871 16.6413 39.6564 17.0284C40.0258 17.4119 40.3223 17.9357 40.546 18.5998C40.7697 19.2638 40.8816 20.0966 40.8816 21.098C40.8816 22.0675 40.7893 22.9286 40.6046 23.6815C40.4235 24.4308 40.1607 25.0629 39.8162 25.5778C39.4753 26.0927 39.0598 26.4833 38.5698 26.7496C38.0833 27.016 37.5329 27.1491 36.9185 27.1491C36.3077 27.1491 35.7626 27.0284 35.2832 26.7869C34.8074 26.5419 34.4167 26.2028 34.1113 25.7695C33.8095 25.3327 33.616 24.8267 33.5307 24.2514H34.8304C34.9476 24.7521 35.1802 25.1658 35.5282 25.4925C35.8798 25.8157 36.3432 25.9773 36.9185 25.9773C37.7601 25.9773 38.4242 25.6097 38.9107 24.8746C39.4008 24.1396 39.6458 23.1009 39.6458 21.7585H39.5606C39.3617 22.0568 39.1255 22.3143 38.8521 22.5309C38.5787 22.7475 38.275 22.9144 37.9412 23.0316C37.6074 23.1488 37.2523 23.2074 36.8759 23.2074C36.2509 23.2074 35.6774 23.0529 35.1554 22.744C34.6369 22.4315 34.2214 22.0036 33.9089 21.4602C33.6 20.9134 33.4455 20.2884 33.4455 19.5852C33.4455 18.9176 33.5946 18.3068 33.8929 17.7528C34.1948 17.1953 34.6174 16.7514 35.1607 16.4212C35.7076 16.0909 36.3503 15.9311 37.089 15.9418ZM37.089 17.1136C36.6415 17.1136 36.2385 17.2255 35.8798 17.4492C35.5247 17.6694 35.2424 17.9677 35.0329 18.3441C34.8269 18.717 34.7239 19.1307 34.7239 19.5852C34.7239 20.0398 34.8233 20.4535 35.0222 20.8263C35.2246 21.1957 35.4998 21.4904 35.8478 21.7106C36.1994 21.9272 36.5989 22.0355 37.0464 22.0355C37.3837 22.0355 37.698 21.9698 37.9892 21.8384C38.2804 21.7035 38.5343 21.5206 38.7509 21.2898C38.9711 21.0554 39.1433 20.7908 39.2676 20.4961C39.3919 20.1978 39.454 19.8871 39.454 19.5639C39.454 19.1378 39.351 18.7383 39.1451 18.3654C38.9427 17.9925 38.6621 17.6907 38.3035 17.4599C37.9483 17.229 37.5435 17.1136 37.089 17.1136ZM43.9138 25.6044C43.651 25.6044 43.4255 25.5103 43.2373 25.3221C43.0491 25.1339 42.955 24.9084 42.955 24.6456C42.955 24.3828 43.0491 24.1573 43.2373 23.9691C43.4255 23.7809 43.651 23.6868 43.9138 23.6868C44.1766 23.6868 44.4021 23.7809 44.5903 23.9691C44.7785 24.1573 44.8726 24.3828 44.8726 24.6456C44.8726 24.8196 44.8282 24.9794 44.7394 25.125C44.6542 25.2706 44.5388 25.3878 44.3932 25.4766C44.2512 25.5618 44.0914 25.6044 43.9138 25.6044ZM43.9138 20.0859C43.651 20.0859 43.4255 19.9918 43.2373 19.8036C43.0491 19.6154 42.955 19.3899 42.955 19.1271C42.955 18.8643 43.0491 18.6388 43.2373 18.4506C43.4255 18.2624 43.651 18.1683 43.9138 18.1683C44.1766 18.1683 44.4021 18.2624 44.5903 18.4506C44.7785 18.6388 44.8726 18.8643 44.8726 19.1271C44.8726 19.3011 44.8282 19.4609 44.7394 19.6065C44.6542 19.7521 44.5388 19.8693 44.3932 19.9581C44.2512 20.0433 44.0914 20.0859 43.9138 20.0859ZM46.8515 24.7628V23.6761L51.6455 16.0909H52.4339V17.7741H51.9012L48.279 23.5057V23.5909H54.735V24.7628H46.8515ZM51.9864 27V24.4325V23.9265V16.0909H53.2435V27H51.9864ZM60.4199 16.0909V27H59.0989V17.4759H59.035L56.3716 19.2443V17.902L59.0989 16.0909H60.4199Z" fill="black"/>
</svg>
